# xmcd
#
# Track frame offsets:
#	150
#	22497
#	39395
#	65758
#	79460
#	93364
#	109927
#	131549
#
# Disc length: 2229 seconds
#
# Revision: 0
# Processed by: cddbd v1.5.2PL0 Copyright (c) Steve Scherf et al.
# Submitted via: dBpowerAMP V4.0
#
DISCID=7108b308
DTITLE=Carney - Mr. Green Volume 1
DYEAR=2010
DGENRE=Blues
TTITLE0=Love Me Chase Me
TTITLE1=Tomorrow's Another Day
TTITLE2=Mr. Green
TTITLE3=Amelie
TTITLE4=There She Goes
TTITLE5=Nothing Without You
TTITLE6=Think Of You
TTITLE7=Testify
EXTD=
EXTT0=
EXTT1=
EXTT2=
EXTT3=
EXTT4=
EXTT5=
EXTT6=
EXTT7=
PLAYORDER=
